{"accessors":{"accessor_0":{"bufferView":"bufferView_1","byteOffset":0,"byteStride":12,"componentType":5126,"count":8217,"max":[743.15,923.56,562.992],"min":[-716.88,-18.7743,-487.825],"type":"VEC3"},"accessor_1":{"bufferView":"bufferView_1","byteOffset":98604,"byteStride":12,"componentType":5126,"count":8217,"max":[1,1,1],"min":[-1,-1,-1],"type":"VEC3"},"accessor_2":{"bufferView":"bufferView_0","byteOffset":0,"byteStride":2,"componentType":5123,"count":49386,"max":[8216],"min":[0],"type":"SCALAR"}},"animations":{},"asset":{"generator":"pv2gltf","premultipliedAlpha":true,"profile":{"api":"WebGL","version":"1.0.2"},"version":"1.0.1"},"bufferViews": {"bufferView_1":{"buffer":"femalePelvisDecimatedFilledHoles@0","byteLength":197208,"byteOffset":0,"target":34962},"bufferView_0":{"buffer":"femalePelvisDecimatedFilledHoles@0","byteLength":98772,"byteOffset":197208,"target":34963}},"buffers": {"femalePelvisDecimatedFilledHoles@0":{"byteLength":295980,"type":"arraybuffer","uri":"femalePelvisDecimatedFilledHoles-0.bin"}},"extensionsUsed":["KHR_materials_common"],"images":{},"materials":{"mat@0-lib":{"extensions":{"KHR_materials_common":{"doubleSided":true,"jointCount":0,"technique":"PHONG","transparent":false,"values":{"ambient":[0,0,0,1],"diffuse":[0.64,0.64,0.64,1],"emission":[0,0,0,1],"shininess":10,"specular":[1,1,1,1]}}},"name":"mat@0"}},"meshes": {"Merge0~1":{"name":"Merge0~1","primitives":[{"attributes":{"NORMAL":"accessor_1","POSITION":"accessor_0"},"indices":"accessor_2","material":"mat@0-lib","mode":4}]}},"nodes":{"/":{"children":["Merge0"],"name":"femalePelvisDecimatedFilledHoles"},"Merge0":{"children":["Merge0~1@0"],"name":"Merge0"},"Merge0~1@0":{"children":[],"meshes":["Merge0~1"]}},"programs": {},"samplers": {},"scene":"defaultScene","scenes":{"defaultScene":{"nodes":["/"]}},"skins":{},"techniques":{},"textures":{}}