{"accessors":{"accessor_0":{"bufferView":"bufferView_1","byteOffset":0,"byteStride":12,"componentType":5126,"count":12266,"max":[7.06606,9.25462,4.85374],"min":[-7.16562,-0.091252,-4.47577],"type":"VEC3"},"accessor_1":{"bufferView":"bufferView_1","byteOffset":147192,"byteStride":12,"componentType":5126,"count":12266,"max":[1,1,1],"min":[-1,-1,-1],"type":"VEC3"},"accessor_2":{"bufferView":"bufferView_0","byteOffset":0,"byteStride":2,"componentType":5123,"count":73674,"max":[12265],"min":[0],"type":"SCALAR"}},"animations":{},"asset":{"generator":"pv2gltf","premultipliedAlpha":true,"profile":{"api":"WebGL","version":"1.0.2"},"version":"1.0.1"},"bufferViews": {"bufferView_1":{"buffer":"malePelvisDecimated@0","byteLength":294384,"byteOffset":0,"target":34962},"bufferView_0":{"buffer":"malePelvisDecimated@0","byteLength":147348,"byteOffset":294384,"target":34963}},"buffers": {"malePelvisDecimated@0":{"byteLength":441732,"type":"arraybuffer","uri":"malePelvisDecimated-0.bin"}},"extensionsUsed":["KHR_materials_common"],"images":{},"materials":{"mat@0-lib":{"extensions":{"KHR_materials_common":{"doubleSided":true,"jointCount":0,"technique":"PHONG","transparent":false,"values":{"ambient":[0,0,0,1],"diffuse":[0.5,0.5,0.5,1],"emission":[0,0,0,1],"shininess":1,"specular":[0,0,0,1]}}},"name":"mat@0"}},"meshes": {"Merge0~1":{"name":"Merge0~1","primitives":[{"attributes":{"NORMAL":"accessor_1","POSITION":"accessor_0"},"indices":"accessor_2","material":"mat@0-lib","mode":4}]}},"nodes":{"/":{"children":["Merge0"],"name":"malePelvisDecimated"},"Merge0":{"children":["Merge0~1@0"],"name":"Merge0"},"Merge0~1@0":{"children":[],"meshes":["Merge0~1"]}},"programs": {},"samplers": {},"scene":"defaultScene","scenes":{"defaultScene":{"nodes":["/"]}},"skins":{},"techniques":{},"textures":{}}