{
    "accessors": {
        "accessor_0": {
            "bufferView": "bufferView_1",
            "byteOffset": 0,
            "byteStride": 12,
            "componentType": 5126,
            "count": 3207,
            "max": [
                688.122,
                925.885,
                486.002
            ],
            "min": [
                -734.408,
                -10.6655,
                -448.799
            ],
            "type": "VEC3"
        },
        "accessor_1": {
            "bufferView": "bufferView_1",
            "byteOffset": 38484,
            "byteStride": 12,
            "componentType": 5126,
            "count": 3207,
            "max": [
                1,
                1,
                1
            ],
            "min": [
                -1,
                -1,
                -1
            ],
            "type": "VEC3"
        },
        "accessor_2": {
            "bufferView": "bufferView_0",
            "byteOffset": 0,
            "byteStride": 2,
            "componentType": 5123,
            "count": 18600,
            "max": [
                3206
            ],
            "min": [
                0
            ],
            "type": "SCALAR"
        }
    },
    "animations": {
    },
    "asset": {
        "generator": "pv2gltf",
        "premultipliedAlpha": true,
        "profile": {
            "api": "WebGL",
            "version": "1.0.2"
        },
        "version": "1.0.1"
    },
    "bufferViews": {
        "bufferView_1": {
            "buffer": "malePelvisDecimatedFilledHoles@0",
            "byteLength": 76968,
            "byteOffset": 0,
            "target": 34962
        },
        "bufferView_0": {
            "buffer": "malePelvisDecimatedFilledHoles@0",
            "byteLength": 37200,
            "byteOffset": 76968,
            "target": 34963
        }
    },
    "buffers": {
        "malePelvisDecimatedFilledHoles@0": {
            "byteLength": 114168,
            "type": "arraybuffer",
            "uri": "malePelvisDecimatedFilledHoles-0.bin"
        }
    },
    "extensionsUsed": [
    ],
    "images": {
    },
    "materials": {
        "mat@0-lib": {
            "name": "mat@0",
            "doubleSided": true,
            "technique": "technique@0",
            "transparent": false,
            "values": {
                "ambient": [
                    0,
                    0,
                    0,
                    1
                ],
                "diffuse": [
                    0.5,
                    0.5,
                    0.5,
                    1
                ],
                "emission": [
                    0,
                    0,
                    0,
                    1
                ],
                "shininess": 1,
                "specular": [
                    0,
                    0,
                    0,
                    1
                ]
            }
        }
    },
    "meshes": {
        "Merge0~1": {
            "name": "Merge0~1",
            "primitives": [
                {
                    "attributes": {
                        "NORMAL": "accessor_1",
                        "POSITION": "accessor_0"
                    },
                    "indices": "accessor_2",
                    "material": "mat@0-lib",
                    "mode": 4
                }
            ]
        }
    },
    "nodes": {
        "/": {
            "children": [
                "Merge0"
            ],
            "name": "malePelvisDecimatedFilledHoles"
        },
        "Merge0": {
            "children": [
                "Merge0~1@0"
            ],
            "name": "Merge0"
        },
        "Merge0~1@0": {
            "children": [],
            "meshes": [
                "Merge0~1"
            ]
        }
    },
    "programs": {
        "program@0": {
            "attributes": [
                "a_normal",
                "a_position"
            ],
            "fragmentShader": "malePelvisDecimatedFilledHoles0FS",
            "vertexShader": "malePelvisDecimatedFilledHoles0VS"
        }
    },
    "samplers": {
    },
    "shaders": {
        "malePelvisDecimatedFilledHoles0FS": {
            "type": 35632,
            "uri": "malePelvisDecimatedFilledHoles0FS.glsl"
        },
        "malePelvisDecimatedFilledHoles0VS": {
            "type": 35633,
            "uri": "malePelvisDecimatedFilledHoles0VS.glsl"
        }
    },
    "scene": "defaultScene",
    "scenes": {
        "defaultScene": {
            "nodes": [
                "/"
            ]
        }
    },
    "skins": {
    },
    "techniques": {
        "technique@0": {
            "attributes": {
                "a_normal": "normal",
                "a_position": "position"
            },
            "parameters": {
                "ambient": {
                    "type": 35666
                },
                "diffuse": {
                    "type": 35666
                },
                "emission": {
                    "type": 35666
                },
                "modelViewMatrix": {
                    "semantic": "MODELVIEW",
                    "type": 35676
                },
                "normal": {
                    "semantic": "NORMAL",
                    "type": 35665
                },
                "normalMatrix": {
                    "semantic": "MODELVIEWINVERSETRANSPOSE",
                    "type": 35675
                },
                "position": {
                    "semantic": "POSITION",
                    "type": 35665
                },
                "projectionMatrix": {
                    "semantic": "PROJECTION",
                    "type": 35676
                },
                "shininess": {
                    "type": 5126
                },
                "specular": {
                    "type": 35666
                }
            },
            "program": "program@0",
            "states": {
                "enable": [
                    2929
                ],
                "disable": [
                    2884
                ],
                "functions": {
                }
            },
            "uniforms": {
                "u_ambient": "ambient",
                "u_diffuse": "diffuse",
                "u_emission": "emission",
                "u_modelViewMatrix": "modelViewMatrix",
                "u_normalMatrix": "normalMatrix",
                "u_projectionMatrix": "projectionMatrix",
                "u_shininess": "shininess",
                "u_specular": "specular"
            }
        }
    },
    "textures": {
    }
}