# WaveFront *.obj file (generated by Autodesk ATF)

mtllib create rotation hole in pelvis_3945K300_HIGH-PULL RARE EARTH MAGNETIC BALL.mtl

g Solid1

v -47.646310 -10.568295 22.350814
v -47.601429 -10.268232 25.160497
v -47.044057 -13.242625 22.626802
v -46.999175 -12.942562 25.436484
v -47.022565 -7.900912 22.055985
v -46.977684 -7.600849 24.865667
v -46.460749 -10.845589 19.800536
v -46.334994 -10.004831 27.673091
v -45.977779 -12.990235 20.021861
v -45.852025 -12.149477 27.894416
v -45.960544 -8.706514 19.564101
v -45.834790 -7.865755 27.436655
v -45.335089 -15.394217 22.829285
v -45.290208 -15.094153 25.638967
v -45.296363 -5.768783 21.800708
v -45.251482 -5.468720 24.610390
v -44.607294 -14.715677 20.184240
v -44.481539 -13.874919 28.056794
v -44.576238 -6.996679 19.359385
v -44.450483 -6.155920 27.231939
v -44.279560 -11.045192 18.014776
v -44.097840 -9.830261 29.390947
v -44.011532 -12.235380 18.137602
v -43.829812 -11.020449 29.513773
v -44.001968 -9.858094 17.883564
v -43.820247 -8.643164 29.259735
v -43.250970 -13.192929 18.227715
v -43.069250 -11.977998 29.603886
v -43.233735 -8.909208 17.769955
v -43.052015 -7.694277 29.146126
v -42.857890 -16.596921 22.918159
v -42.813008 -16.296858 25.727841
v -42.809599 -4.594202 21.635544
v -42.764718 -4.294139 24.445226
v -42.620734 -15.680172 20.255512
v -42.494979 -14.839414 28.128066
v -42.582008 -6.054738 19.226934
v -42.456253 -5.213980 27.099488
v -42.148512 -13.728183 18.267268
v -41.966792 -12.513252 29.643439
v -42.127021 -8.386470 17.696451
v -41.945300 -7.171539 29.072621
v -41.534755 -11.127570 17.347225
v -41.333060 -9.779098 29.973822
v -40.922515 -13.735129 18.248426
v -40.740794 -12.520198 29.624597
v -40.901023 -8.393416 17.677609
v -40.719303 -7.178485 29.053779
v -40.411562 -15.692688 20.221559
v -40.285807 -14.851930 28.094113
v -40.372836 -6.067254 19.192982
v -40.247081 -5.226496 27.065536
v -40.103097 -16.612529 22.875821
v -40.058216 -16.312466 25.685504
v -40.054807 -4.609810 21.593206
v -40.009925 -4.309747 24.402888
v -39.815800 -13.212391 18.174921
v -39.634080 -11.997460 29.551092
v -39.798566 -8.928670 17.717161
v -39.616845 -7.713739 29.093332
v -39.047568 -12.263504 18.061312
v -38.865847 -11.048573 29.437483
v -39.038003 -9.886219 17.807275
v -38.856283 -8.671288 29.183445
v -38.769976 -11.076407 17.930101
v -38.588255 -9.861476 29.306271
v -38.417332 -14.750747 20.089108
v -38.291577 -13.909989 27.961662
v -38.386276 -7.031749 19.264253
v -38.260521 -6.190991 27.136807
v -37.616333 -15.437948 22.710658
v -37.571452 -15.137885 25.520340
v -37.577607 -5.812515 21.682080
v -37.532726 -5.512451 24.491762
v -37.033025 -13.040913 19.884392
v -36.907271 -12.200154 27.756946
v -37.015790 -8.757191 19.426632
v -36.890036 -7.916433 27.299186
v -36.532821 -10.901837 19.647957
v -36.407066 -10.061079 27.520511
v -35.890131 -13.305819 22.455381
v -35.845250 -13.005756 25.265063
v -35.868640 -7.964106 21.884563
v -35.823758 -7.664043 24.694245
v -35.266386 -10.638436 22.160551
v -35.221505 -10.338372 24.970233
vt 0.997456 -1.994911 0.000000
vt -0.997456 1.994911 0.000000
vt 0.712468 0.000000 0.000000
vt 0.427481 0.000000 0.000000
vt 0.142494 0.000000 0.000000
vt -0.142494 0.000000 0.000000
vt -0.427481 0.000000 0.000000
vt -0.712468 0.000000 0.000000
vt -0.712468 -1.994911 0.000000
vt -0.427481 -1.994911 0.000000
vt -0.142494 -1.994911 0.000000
vt 0.142494 -1.994911 0.000000
vt 0.427481 -1.994911 0.000000
vt 0.712468 -1.994911 0.000000
vt 0.712468 -1.709924 0.000000
vt 0.427481 -1.709924 0.000000
vt 0.142494 -1.709924 0.000000
vt -0.142494 -1.709924 0.000000
vt -0.427481 -1.709924 0.000000
vt -0.712468 -1.709924 0.000000
vt -0.712468 1.709924 0.000000
vt -0.427481 1.709924 0.000000
vt -0.142494 1.709924 0.000000
vt 0.142494 1.709924 0.000000
vt 0.427481 1.709924 0.000000
vt 0.712468 1.709924 0.000000
vt 0.712468 0.284987 0.000000
vt 0.427481 0.284987 0.000000
vt 0.142494 0.284987 0.000000
vt -0.142494 0.284987 0.000000
vt -0.427481 0.284987 0.000000
vt -0.712468 0.284987 0.000000
vt -0.712468 -0.284987 0.000000
vt -0.427481 -0.284987 0.000000
vt -0.142494 -0.284987 0.000000
vt 0.142494 -0.284987 0.000000
vt 0.427481 -0.284987 0.000000
vt 0.712468 -0.284987 0.000000
vt -0.712468 -0.569975 0.000000
vt -0.427481 -0.569975 0.000000
vt -0.142494 -0.569975 0.000000
vt 0.142494 -0.569975 0.000000
vt 0.427481 -0.569975 0.000000
vt 0.712468 -0.569975 0.000000
vt -0.712468 -0.854962 0.000000
vt -0.427481 -0.854962 0.000000
vt -0.142494 -0.854962 0.000000
vt 0.142494 -0.854962 0.000000
vt 0.427481 -0.854962 0.000000
vt 0.712468 -0.854962 0.000000
vt -0.712468 -1.139949 0.000000
vt -0.427481 -1.139949 0.000000
vt -0.142494 -1.139949 0.000000
vt 0.142494 -1.139949 0.000000
vt 0.427481 -1.139949 0.000000
vt 0.712468 -1.139949 0.000000
vt -0.712468 -1.424937 0.000000
vt -0.427481 -1.424937 0.000000
vt -0.142494 -1.424937 0.000000
vt 0.142494 -1.424937 0.000000
vt 0.427481 -1.424937 0.000000
vt 0.712468 -1.424937 0.000000
vt 0.712468 0.569975 0.000000
vt 0.427481 0.569975 0.000000
vt 0.142494 0.569975 0.000000
vt -0.142494 0.569975 0.000000
vt -0.427481 0.569975 0.000000
vt -0.712468 0.569975 0.000000
vt 0.712468 0.854962 0.000000
vt 0.427481 0.854962 0.000000
vt 0.142494 0.854962 0.000000
vt -0.142494 0.854962 0.000000
vt -0.427481 0.854962 0.000000
vt -0.712468 0.854962 0.000000
vt 0.712468 1.139949 0.000000
vt 0.427481 1.139949 0.000000
vt 0.142494 1.139949 0.000000
vt -0.142494 1.139949 0.000000
vt -0.427481 1.139949 0.000000
vt -0.712468 1.139949 0.000000
vt 0.712468 1.424937 0.000000
vt 0.427481 1.424937 0.000000
vt 0.142494 1.424937 0.000000
vt -0.142494 1.424937 0.000000
vt -0.427481 1.424937 0.000000
vt -0.712468 1.424937 0.000000
vt -0.997456 -1.994911 0.000000
vt -0.997456 -1.994911 0.000000
vt -0.997456 -1.994911 0.000000
vt -0.997456 -1.994911 0.000000
vt -0.997456 -1.994911 0.000000
vt -0.997456 -1.994911 0.000000
vt 0.997456 1.994911 0.000000
vt 0.997456 1.994911 0.000000
vt 0.997456 1.994911 0.000000
vt 0.997456 1.994911 0.000000
vt 0.997456 1.994911 0.000000
vt 0.712468 -2.279899 0.000000
vt 0.712468 -2.279899 0.000000
vt 0.427481 1.994911 0.000000
vt 0.997456 1.994911 0.000000
vt 0.427481 -2.279899 0.000000
vt 0.142494 1.994911 0.000000
vt 0.142494 -2.279899 0.000000
vt -0.142494 1.994911 0.000000
vt -0.142494 -2.279899 0.000000
vt -0.427481 1.994911 0.000000
vt -0.427481 -2.279899 0.000000
vt -0.712468 1.994911 0.000000
vt -0.997456 -1.994911 0.000000
vt -0.712468 1.994911 0.000000
vn -0.001588 -0.010618 -0.099422
vn 0.001588 0.010618 0.099422
vn 0.041952 -0.009812 -0.090243
vn 0.077182 -0.007063 -0.063190
vn 0.097126 -0.002915 -0.023622
vn 0.097833 0.001810 0.020625
vn 0.079163 0.006177 0.060787
vn 0.044813 0.009321 0.088909
vn -0.041952 0.009812 0.090243
vn -0.077182 0.007063 0.063190
vn -0.097126 0.002915 0.023622
vn -0.097833 -0.001810 -0.020625
vn -0.079163 -0.006177 -0.060787
vn -0.044813 -0.009321 -0.088909
vn -0.040593 -0.028064 -0.086975
vn -0.071557 -0.039951 -0.057302
vn -0.088349 -0.043926 -0.016279
vn -0.087642 -0.039200 0.027968
vn -0.069577 -0.026711 0.066675
vn -0.037731 -0.008931 0.092177
vn -0.037580 0.028507 0.088177
vn -0.069305 0.040749 0.059467
vn -0.087304 0.044921 0.018979
vn -0.088010 0.040196 -0.025268
vn -0.071286 0.027509 -0.064511
vn -0.040442 0.009374 -0.090976
vn 0.037731 0.008931 -0.092177
vn 0.069577 0.026711 -0.066675
vn 0.087642 0.039200 -0.027968
vn 0.088349 0.043926 0.016279
vn 0.071557 0.039951 0.057302
vn 0.040593 0.028064 0.086975
vn 0.040442 -0.009374 0.090976
vn 0.071286 -0.027509 0.064511
vn 0.088010 -0.040196 0.025268
vn 0.087304 -0.044921 -0.018979
vn 0.069305 -0.040749 -0.059467
vn 0.037580 -0.028507 -0.088177
vn 0.028344 -0.024317 0.092765
vn 0.049486 -0.054436 0.067734
vn 0.060826 -0.073772 0.029288
vn 0.060119 -0.078498 -0.014959
vn 0.047505 -0.067676 -0.056243
vn 0.025482 -0.043450 -0.086387
vn 0.010915 -0.032549 0.093922
vn 0.018080 -0.069269 0.069820
vn 0.021664 -0.092270 0.031889
vn 0.020958 -0.096995 -0.012358
vn 0.016100 -0.082510 -0.054157
vn 0.008053 -0.051682 -0.085230
vn -0.008392 -0.032440 0.094219
vn -0.016710 -0.069072 0.070355
vn -0.021718 -0.092024 0.032556
vn -0.022425 -0.096749 -0.011691
vn -0.018690 -0.082312 -0.053622
vn -0.011254 -0.051572 -0.084933
vn -0.025753 -0.024010 0.093596
vn -0.047994 -0.053883 0.069233
vn -0.060729 -0.073084 0.031157
vn -0.061436 -0.077809 -0.013090
vn -0.049975 -0.067124 -0.054745
vn -0.028615 -0.043143 -0.085556
vn 0.025753 0.024010 -0.093596
vn 0.047994 0.053883 -0.069233
vn 0.060729 0.073084 -0.031157
vn 0.061436 0.077809 0.013090
vn 0.049975 0.067124 0.054745
vn 0.028615 0.043143 0.085556
vn 0.008392 0.032440 -0.094219
vn 0.016710 0.069072 -0.070355
vn 0.021718 0.092024 -0.032556
vn 0.022425 0.096749 0.011691
vn 0.018690 0.082312 0.053622
vn 0.011254 0.051572 0.084933
vn -0.010915 0.032549 -0.093922
vn -0.018080 0.069269 -0.069820
vn -0.021664 0.092270 -0.031889
vn -0.020958 0.096995 0.012358
vn -0.016100 0.082510 0.054157
vn -0.008053 0.051682 0.085230
vn -0.028344 0.024317 -0.092765
vn -0.049486 0.054436 -0.067734
vn -0.060826 0.073772 -0.029288
vn -0.060119 0.078498 0.014959
vn -0.047505 0.067676 0.056243
vn -0.025482 0.043450 0.086387
vn 0.001588 0.010618 0.099422
vn 0.001588 0.010618 0.099422
vn 0.001588 0.010618 0.099422
vn 0.001588 0.010618 0.099422
vn 0.001588 0.010618 0.099422
vn 0.001588 0.010618 0.099422
vn -0.001588 -0.010618 -0.099422
vn -0.001588 -0.010618 -0.099422
vn -0.001588 -0.010618 -0.099422
vn -0.001588 -0.010618 -0.099422
vn -0.001588 -0.010618 -0.099422
vn -0.040442 0.009374 -0.090976
vn -0.040442 0.009374 -0.090976
vn -0.079163 -0.006177 -0.060787
vn -0.001588 -0.010618 -0.099422
vn -0.071286 0.027509 -0.064511
vn -0.097833 -0.001810 -0.020625
vn -0.088010 0.040196 -0.025268
vn -0.097126 0.002915 0.023622
vn -0.087304 0.044921 0.018979
vn -0.077182 0.007063 0.063190
vn -0.069305 0.040749 0.059467
vn -0.041952 0.009812 0.090243
vn 0.001588 0.010618 0.099422
vn -0.041952 0.009812 0.090243
usemtl 192,192,192
f 62/33/33 44/87/87 58/39/39
f 58/39/39 44/88/88 46/45/45
f 46/45/45 44/89/89 40/51/51
f 40/51/51 44/90/90 28/57/57
f 28/57/57 44/91/91 24/20/20
f 24/20/20 44/92/92 22/9/9
f 23/15/15 43/1/1 27/62/62
f 27/62/62 43/1/1 39/56/56
f 39/56/56 43/1/1 45/50/50
f 45/50/50 43/1/1 57/44/44
f 57/44/44 43/1/1 61/38/38
f 61/38/38 43/1/1 65/3/3
f 63/27/27 43/93/93 59/63/63
f 59/63/63 43/94/94 47/69/69
f 47/69/69 43/95/95 41/75/75
f 41/75/75 43/96/96 29/81/81
f 29/81/81 43/97/97 25/26/26
f 25/98/98 43/1/1 21/14/14
f 26/21/21 44/2/2 30/86/86
f 30/86/86 44/2/2 42/80/80
f 42/80/80 44/2/2 48/74/74
f 48/74/74 44/2/2 60/68/68
f 60/68/68 44/2/2 64/32/32
f 64/32/32 44/2/2 66/8/8
f 65/3/3 79/4/4 61/38/38
f 61/38/38 79/4/4 75/37/37
f 61/38/38 75/37/37 57/44/44
f 57/44/44 75/37/37 67/43/43
f 57/44/44 67/43/43 45/50/50
f 45/50/50 67/43/43 49/49/49
f 45/50/50 49/49/49 39/56/56
f 39/56/56 49/49/49 35/55/55
f 39/56/56 35/55/55 27/62/62
f 27/62/62 35/55/55 17/61/61
f 27/62/62 17/61/61 23/15/15
f 23/15/15 17/61/61 9/16/16
f 23/15/15 9/16/16 21/14/14
f 21/14/14 9/16/16 7/13/13
f 21/14/14 7/13/13 25/99/99
f 25/26/26 7/100/100 11/25/25
f 25/26/26 11/25/25 29/81/81
f 29/81/81 11/25/25 19/82/82
f 29/81/81 19/82/82 41/75/75
f 41/75/75 19/82/82 37/76/76
f 41/75/75 37/76/76 47/69/69
f 47/69/69 37/76/76 51/70/70
f 47/69/69 51/70/70 59/63/63
f 59/63/63 51/70/70 69/64/64
f 59/63/63 69/64/64 63/27/27
f 63/27/27 69/64/64 77/28/28
f 63/27/27 77/28/28 65/3/3
f 65/3/3 77/28/28 79/4/4
f 65/3/3 43/101/101 63/27/27
f 79/4/4 85/5/5 75/37/37
f 75/37/37 85/5/5 81/36/36
f 75/37/37 81/36/36 67/43/43
f 67/43/43 81/36/36 71/42/42
f 67/43/43 71/42/42 49/49/49
f 49/49/49 71/42/42 53/48/48
f 49/49/49 53/48/48 35/55/55
f 35/55/55 53/48/48 31/54/54
f 35/55/55 31/54/54 17/61/61
f 17/61/61 31/54/54 13/60/60
f 17/61/61 13/60/60 9/16/16
f 9/16/16 13/60/60 3/17/17
f 9/16/16 3/17/17 7/13/13
f 7/13/13 3/17/17 1/12/12
f 7/13/13 1/12/12 11/102/102
f 11/25/25 1/103/103 5/24/24
f 11/25/25 5/24/24 19/82/82
f 19/82/82 5/24/24 15/83/83
f 19/82/82 15/83/83 37/76/76
f 37/76/76 15/83/83 33/77/77
f 37/76/76 33/77/77 51/70/70
f 51/70/70 33/77/77 55/71/71
f 51/70/70 55/71/71 69/64/64
f 69/64/64 55/71/71 73/65/65
f 69/64/64 73/65/65 77/28/28
f 77/28/28 73/65/65 83/29/29
f 77/28/28 83/29/29 79/4/4
f 79/4/4 83/29/29 85/5/5
f 85/5/5 86/6/6 81/36/36
f 81/36/36 86/6/6 82/35/35
f 81/36/36 82/35/35 71/42/42
f 71/42/42 82/35/35 72/41/41
f 71/42/42 72/41/41 53/48/48
f 53/48/48 72/41/41 54/47/47
f 53/48/48 54/47/47 31/54/54
f 31/54/54 54/47/47 32/53/53
f 31/54/54 32/53/53 13/60/60
f 13/60/60 32/53/53 14/59/59
f 13/60/60 14/59/59 3/17/17
f 3/17/17 14/59/59 4/18/18
f 3/17/17 4/18/18 1/12/12
f 1/12/12 4/18/18 2/11/11
f 1/12/12 2/11/11 5/104/104
f 5/24/24 2/105/105 6/23/23
f 5/24/24 6/23/23 15/83/83
f 15/83/83 6/23/23 16/84/84
f 15/83/83 16/84/84 33/77/77
f 33/77/77 16/84/84 34/78/78
f 33/77/77 34/78/78 55/71/71
f 55/71/71 34/78/78 56/72/72
f 55/71/71 56/72/72 73/65/65
f 73/65/65 56/72/72 74/66/66
f 73/65/65 74/66/66 83/29/29
f 83/29/29 74/66/66 84/30/30
f 83/29/29 84/30/30 85/5/5
f 85/5/5 84/30/30 86/6/6
f 86/6/6 80/7/7 82/35/35
f 82/35/35 80/7/7 76/34/34
f 82/35/35 76/34/34 72/41/41
f 72/41/41 76/34/34 68/40/40
f 72/41/41 68/40/40 54/47/47
f 54/47/47 68/40/40 50/46/46
f 54/47/47 50/46/46 32/53/53
f 32/53/53 50/46/46 36/52/52
f 32/53/53 36/52/52 14/59/59
f 14/59/59 36/52/52 18/58/58
f 14/59/59 18/58/58 4/18/18
f 4/18/18 18/58/58 10/19/19
f 4/18/18 10/19/19 2/11/11
f 2/11/11 10/19/19 8/10/10
f 2/11/11 8/10/10 6/106/106
f 6/23/23 8/107/107 12/22/22
f 6/23/23 12/22/22 16/84/84
f 16/84/84 12/22/22 20/85/85
f 16/84/84 20/85/85 34/78/78
f 34/78/78 20/85/85 38/79/79
f 34/78/78 38/79/79 56/72/72
f 56/72/72 38/79/79 52/73/73
f 56/72/72 52/73/73 74/66/66
f 74/66/66 52/73/73 70/67/67
f 74/66/66 70/67/67 84/30/30
f 84/30/30 70/67/67 78/31/31
f 84/30/30 78/31/31 86/6/6
f 86/6/6 78/31/31 80/7/7
f 80/7/7 66/8/8 76/34/34
f 76/34/34 66/8/8 62/33/33
f 76/34/34 62/33/33 68/40/40
f 68/40/40 62/33/33 58/39/39
f 68/40/40 58/39/39 50/46/46
f 50/46/46 58/39/39 46/45/45
f 50/46/46 46/45/45 36/52/52
f 36/52/52 46/45/45 40/51/51
f 36/52/52 40/51/51 18/58/58
f 18/58/58 40/51/51 28/57/57
f 18/58/58 28/57/57 10/19/19
f 10/19/19 28/57/57 24/20/20
f 10/19/19 24/20/20 8/10/10
f 8/10/10 24/20/20 22/9/9
f 8/10/10 22/9/9 12/108/108
f 12/22/22 22/109/109 26/21/21
f 12/22/22 26/21/21 20/85/85
f 20/85/85 26/21/21 30/86/86
f 20/85/85 30/86/86 38/79/79
f 38/79/79 30/86/86 42/80/80
f 38/79/79 42/80/80 52/73/73
f 52/73/73 42/80/80 48/74/74
f 52/73/73 48/74/74 70/67/67
f 70/67/67 48/74/74 60/68/68
f 70/67/67 60/68/68 78/31/31
f 78/31/31 60/68/68 64/32/32
f 78/31/31 64/32/32 80/7/7
f 80/7/7 64/32/32 66/8/8
f 66/8/8 44/110/110 62/33/33
f 22/111/111 44/2/2 26/21/21
f 21/14/14 43/1/1 23/15/15

# 86 vertices
# 111 texture params
# 111 normals
# 168 facets

# 1 groups
