# WaveFront *.obj file (generated by Autodesk ATF)

mtllib mount assem_washer connector.mtl

g Solid1:3

v -40.007508 -0.203700 22.071337
v -40.018482 1.486738 18.446106
v -45.884287 -1.197598 21.625674
v -45.895261 0.492839 18.000443
v -40.138524 -0.913368 21.740816
v -40.149498 0.777069 18.115585
v -45.481439 -1.816978 21.335639
v -45.492413 -0.126541 17.710408
v -34.805562 -2.865139 20.814566
v -34.816536 -1.174702 17.189335
v -49.686089 -5.381779 19.686108
v -49.697063 -3.691342 16.060877
v -35.409139 -3.333035 20.598214
v -35.420113 -1.642598 16.972983
v -48.937873 -5.621056 19.572269
v -48.948847 -3.930618 15.947038
v -33.506214 -7.943789 18.442469
v -33.517188 -6.253352 14.817238
v -48.890523 -10.545630 17.275807
v -48.901497 -8.855193 13.650576
v -32.712497 -7.936601 18.443418
v -32.723471 -6.246163 14.818187
v -49.634007 -10.798418 17.160184
v -49.644982 -9.107980 13.534953
v 34.364137 0.445705 22.149015
v 34.353162 2.136142 18.523784
v 34.558982 -0.251443 21.823347
v 34.548008 1.438995 18.198116
v -35.320150 -12.588208 16.282278
v -35.331124 -10.897771 12.657046
v -45.361545 -14.286439 15.520793
v -45.372519 -12.596002 11.895562
v 40.310492 -0.093888 21.879403
v 40.299518 1.596549 18.254172
v -34.707682 -13.045089 16.067381
v -34.718656 -11.354652 12.442150
v -45.752413 -14.913008 15.229809
v -45.763388 -13.222570 11.604578
v 39.965154 -0.742017 21.578227
v 39.954180 0.948420 17.952996
v 29.421377 -2.605547 20.741186
v 29.410403 -0.915110 17.115954
v 30.065239 -3.025510 20.543409
v 30.054265 -1.335072 16.918178
v -40.002186 -15.093116 15.128418
v -40.013160 -13.402678 11.503187
v -39.857547 -15.800288 14.798227
v -39.868521 -14.109851 11.172996
v 44.478074 -3.971845 20.058504
v 44.467100 -2.281407 16.433273
v 43.754138 -4.267689 19.922744
v 43.743164 -2.577252 16.297513
v 27.794988 -7.819928 18.314654
v 27.784013 -6.129491 14.689423
v 28.586595 -7.766201 18.337311
v 28.575621 -6.075763 14.712080
v 44.153034 -9.178754 17.631518
v 44.142060 -7.488317 14.006286
v 44.916829 -9.373625 17.538338
v 44.905855 -7.683188 13.913106
v 30.814920 -12.255295 16.237311
v 30.803946 -10.564857 12.612079
v 30.245971 -12.757574 16.004821
v 30.234997 -11.067136 12.379590
v 40.975196 -13.177275 15.776636
v 40.964222 -11.486837 12.151405
v 35.707565 -14.392295 15.226021
v 35.696590 -12.701858 11.600790
v 41.421461 -13.771676 15.498117
v 41.410487 -12.081239 11.872886
v 35.627486 -15.108102 14.892484
v 35.616511 -13.417665 11.267253
vt 0.400000 -2.495634 0.000000
vt 0.400000 -1.941049 0.000000
vt 0.400000 -1.386463 0.000000
vt 0.400000 -0.831878 0.000000
vt 0.400000 -0.277293 0.000000
vt 0.400000 0.277293 0.000000
vt 0.400000 0.831878 0.000000
vt 0.400000 1.386463 0.000000
vt 0.400000 1.941049 0.000000
vt 0.000000 2.495634 0.000000
vt 0.000000 1.941049 0.000000
vt 0.000000 1.386463 0.000000
vt 0.000000 0.831878 0.000000
vt 0.000000 0.277293 0.000000
vt 0.000000 -0.277293 0.000000
vt 0.000000 -0.831878 0.000000
vt 0.000000 -1.386463 0.000000
vt 0.000000 -1.941049 0.000000
vt 0.000000 -2.495634 0.000000
vt 0.400000 2.495634 0.000000
vt -0.400000 2.744998 0.000000
vt -0.400000 2.134998 0.000000
vt -0.400000 1.524999 0.000000
vt -0.400000 0.914999 0.000000
vt -0.400000 0.305000 0.000000
vt -0.400000 -0.305000 0.000000
vt -0.400000 -0.914999 0.000000
vt -0.400000 -1.524999 0.000000
vt -0.400000 -2.134998 0.000000
vt -0.000000 -2.744998 0.000000
vt -0.000000 -2.134998 0.000000
vt -0.000000 -1.524999 0.000000
vt -0.000000 -0.914999 0.000000
vt -0.000000 -0.305000 0.000000
vt -0.000000 0.305000 0.000000
vt -0.000000 0.914999 0.000000
vt -0.000000 1.524999 0.000000
vt -0.000000 2.134998 0.000000
vt -0.000000 2.744998 0.000000
vt -0.400000 -2.744998 0.000000
vt -0.794385 0.000000 0.000000
vt -0.608534 0.510621 0.000000
vt -0.137944 0.782317 0.000000
vt 0.397193 0.687958 0.000000
vt 0.746478 0.271696 0.000000
vt 0.746478 -0.271696 0.000000
vt 0.397193 -0.687958 0.000000
vt -0.137944 -0.782317 0.000000
vt -0.608534 -0.510621 0.000000
vt -0.873760 0.000000 0.000000
vt -0.669339 -0.561642 0.000000
vt -0.151727 -0.860486 0.000000
vt 0.436880 -0.756698 0.000000
vt 0.821066 -0.298844 0.000000
vt 0.821066 0.298844 0.000000
vt 0.436880 0.756698 0.000000
vt -0.151727 0.860486 0.000000
vt -0.669339 0.561642 0.000000
vt 0.794385 0.000000 0.000000
vt 0.608534 -0.510621 0.000000
vt 0.137944 -0.782317 0.000000
vt -0.397193 -0.687958 0.000000
vt -0.746478 -0.271696 0.000000
vt -0.746478 0.271696 0.000000
vt -0.397193 0.687958 0.000000
vt 0.137944 0.782317 0.000000
vt 0.608534 0.510621 0.000000
vt 0.873760 0.000000 0.000000
vt 0.669339 0.561642 0.000000
vt 0.151727 0.860486 0.000000
vt -0.436880 0.756698 0.000000
vt -0.821066 0.298844 0.000000
vt -0.821066 -0.298844 0.000000
vt -0.436880 -0.756698 0.000000
vt 0.151727 -0.860486 0.000000
vt 0.669339 -0.561642 0.000000
vt 0.400000 -2.495634 0.000000
vt 0.400000 -1.941049 0.000000
vt 0.400000 -1.386463 0.000000
vt 0.400000 -0.831878 0.000000
vt 0.400000 -0.277293 0.000000
vt 0.400000 0.277293 0.000000
vt 0.400000 0.831878 0.000000
vt 0.400000 1.386463 0.000000
vt 0.400000 1.941049 0.000000
vt 0.000000 2.495634 0.000000
vt 0.000000 1.941049 0.000000
vt 0.000000 1.386463 0.000000
vt 0.000000 0.831878 0.000000
vt 0.000000 0.277293 0.000000
vt 0.000000 -0.277293 0.000000
vt 0.000000 -0.831878 0.000000
vt 0.000000 -1.386463 0.000000
vt 0.000000 -1.941049 0.000000
vt 0.000000 -2.495634 0.000000
vt 0.400000 2.495634 0.000000
vt -0.400000 2.744998 0.000000
vt -0.400000 2.134998 0.000000
vt -0.400000 1.524999 0.000000
vt -0.400000 0.914999 0.000000
vt -0.400000 0.305000 0.000000
vt -0.400000 -0.305000 0.000000
vt -0.400000 -0.914999 0.000000
vt -0.400000 -1.524999 0.000000
vt -0.400000 -2.134998 0.000000
vt -0.000000 -2.744998 0.000000
vt -0.000000 -2.134998 0.000000
vt -0.000000 -1.524999 0.000000
vt -0.000000 -0.914999 0.000000
vt -0.000000 -0.305000 0.000000
vt -0.000000 0.305000 0.000000
vt -0.000000 0.914999 0.000000
vt -0.000000 1.524999 0.000000
vt -0.000000 2.134998 0.000000
vt -0.000000 2.744998 0.000000
vt -0.400000 -2.744998 0.000000
vt -0.351838 -0.712220 0.000000
vt -0.727330 -0.319435 0.000000
vt -0.762496 0.222817 0.000000
vt -0.440882 0.660811 0.000000
vt 0.087026 0.789604 0.000000
vt 0.574213 0.548932 0.000000
vt 0.792720 0.051410 0.000000
vt 0.640304 -0.470168 0.000000
vt 0.188283 -0.771749 0.000000
vt -0.386993 -0.783385 0.000000
vt 0.207096 -0.848863 0.000000
vt 0.704283 -0.517148 0.000000
vt 0.871928 0.056546 0.000000
vt 0.631589 0.603782 0.000000
vt 0.095721 0.868501 0.000000
vt -0.484935 0.726839 0.000000
vt -0.838685 0.245081 0.000000
vt -0.800005 -0.351353 0.000000
vt 0.351838 -0.712220 0.000000
vt -0.188283 -0.771749 0.000000
vt -0.640304 -0.470168 0.000000
vt -0.792720 0.051410 0.000000
vt -0.574213 0.548932 0.000000
vt -0.087026 0.789604 0.000000
vt 0.440882 0.660811 0.000000
vt 0.762496 0.222817 0.000000
vt 0.727330 -0.319435 0.000000
vt 0.386993 -0.783385 0.000000
vt 0.800005 -0.351353 0.000000
vt 0.838685 0.245081 0.000000
vt 0.484935 0.726839 0.000000
vt -0.095721 0.868501 0.000000
vt -0.631589 0.603782 0.000000
vt -0.871928 0.056546 0.000000
vt -0.704283 -0.517148 0.000000
vt -0.207096 -0.848863 0.000000
vn -0.018222 0.089093 0.041599
vn 0.049243 0.078938 0.036659
vn 0.093667 0.031847 0.014567
vn 0.094263 -0.030145 -0.014342
vn 0.050753 -0.078032 -0.036540
vn -0.016506 -0.089407 -0.041640
vn -0.076041 -0.058947 -0.027257
vn -0.099996 -0.000906 -0.000120
vn -0.077161 0.057560 0.027074
vn -0.018222 0.089093 0.041599
vn -0.077161 0.057560 0.027074
vn -0.099996 -0.000906 -0.000120
vn -0.076041 -0.058947 -0.027257
vn -0.016506 -0.089407 -0.041640
vn 0.050753 -0.078032 -0.036540
vn 0.094263 -0.030145 -0.014342
vn 0.093667 0.031847 0.014567
vn 0.049243 0.078938 0.036659
vn -0.018222 0.089093 0.041599
vn -0.018222 0.089093 0.041599
vn 0.018222 -0.089093 -0.041599
vn 0.077161 -0.057560 -0.027074
vn 0.099996 0.000906 0.000120
vn 0.076041 0.058947 0.027257
vn 0.016506 0.089407 0.041640
vn -0.050753 0.078032 0.036540
vn -0.094263 0.030145 0.014342
vn -0.093667 -0.031847 -0.014567
vn -0.049243 -0.078938 -0.036659
vn 0.018222 -0.089093 -0.041599
vn -0.049243 -0.078938 -0.036659
vn -0.093667 -0.031847 -0.014567
vn -0.094263 0.030145 0.014342
vn -0.050753 0.078032 0.036540
vn 0.016506 0.089407 0.041640
vn 0.076041 0.058947 0.027257
vn 0.099996 0.000906 0.000120
vn 0.077161 -0.057560 -0.027074
vn 0.018222 -0.089093 -0.041599
vn 0.018222 -0.089093 -0.041599
vn 0.000274 -0.042261 0.090631
vn 0.000274 -0.042261 0.090631
vn 0.000274 -0.042261 0.090631
vn 0.000274 -0.042261 0.090631
vn 0.000274 -0.042261 0.090631
vn 0.000274 -0.042261 0.090631
vn 0.000274 -0.042261 0.090631
vn 0.000274 -0.042261 0.090631
vn 0.000274 -0.042261 0.090631
vn 0.000274 -0.042261 0.090631
vn 0.000274 -0.042261 0.090631
vn 0.000274 -0.042261 0.090631
vn 0.000274 -0.042261 0.090631
vn 0.000274 -0.042261 0.090631
vn 0.000274 -0.042261 0.090631
vn 0.000274 -0.042261 0.090631
vn 0.000274 -0.042261 0.090631
vn 0.000274 -0.042261 0.090631
vn -0.000274 0.042261 -0.090631
vn -0.000274 0.042261 -0.090631
vn -0.000274 0.042261 -0.090631
vn -0.000274 0.042261 -0.090631
vn -0.000274 0.042261 -0.090631
vn -0.000274 0.042261 -0.090631
vn -0.000274 0.042261 -0.090631
vn -0.000274 0.042261 -0.090631
vn -0.000274 0.042261 -0.090631
vn -0.000274 0.042261 -0.090631
vn -0.000274 0.042261 -0.090631
vn -0.000274 0.042261 -0.090631
vn -0.000274 0.042261 -0.090631
vn -0.000274 0.042261 -0.090631
vn -0.000274 0.042261 -0.090631
vn -0.000274 0.042261 -0.090631
vn -0.000274 0.042261 -0.090631
vn -0.000274 0.042261 -0.090631
vn -0.096226 0.024551 0.011739
vn -0.056222 0.074885 0.035089
vn 0.010089 0.090180 0.042020
vn 0.071679 0.063279 0.029290
vn 0.099730 0.006769 0.002854
vn 0.081116 -0.052909 -0.024917
vn 0.024547 -0.087830 -0.041029
vn -0.043507 -0.081654 -0.037943
vn -0.091205 -0.037272 -0.017104
vn -0.096226 0.024551 0.011739
vn -0.091205 -0.037272 -0.017104
vn -0.043507 -0.081654 -0.037943
vn 0.024547 -0.087830 -0.041029
vn 0.081116 -0.052909 -0.024917
vn 0.099730 0.006769 0.002854
vn 0.071679 0.063279 0.029290
vn 0.010089 0.090180 0.042020
vn -0.056222 0.074885 0.035089
vn -0.096226 0.024551 0.011739
vn -0.096226 0.024551 0.011739
vn 0.096226 -0.024551 -0.011739
vn 0.091205 0.037272 0.017104
vn 0.043507 0.081654 0.037943
vn -0.024547 0.087830 0.041029
vn -0.081116 0.052909 0.024917
vn -0.099730 -0.006769 -0.002854
vn -0.071679 -0.063279 -0.029290
vn -0.010089 -0.090180 -0.042020
vn 0.056222 -0.074885 -0.035089
vn 0.096226 -0.024551 -0.011739
vn 0.056222 -0.074885 -0.035089
vn -0.010089 -0.090180 -0.042020
vn -0.071679 -0.063279 -0.029290
vn -0.099730 -0.006769 -0.002854
vn -0.081116 0.052909 0.024917
vn -0.024547 0.087830 0.041029
vn 0.043507 0.081654 0.037943
vn 0.091205 0.037272 0.017104
vn 0.096226 -0.024551 -0.011739
vn 0.096226 -0.024551 -0.011739
vn 0.000274 -0.042261 0.090631
vn 0.000274 -0.042261 0.090631
vn 0.000274 -0.042261 0.090631
vn 0.000274 -0.042261 0.090631
vn 0.000274 -0.042261 0.090631
vn 0.000274 -0.042261 0.090631
vn 0.000274 -0.042261 0.090631
vn 0.000274 -0.042261 0.090631
vn 0.000274 -0.042261 0.090631
vn 0.000274 -0.042261 0.090631
vn 0.000274 -0.042261 0.090631
vn 0.000274 -0.042261 0.090631
vn 0.000274 -0.042261 0.090631
vn 0.000274 -0.042261 0.090631
vn 0.000274 -0.042261 0.090631
vn 0.000274 -0.042261 0.090631
vn 0.000274 -0.042261 0.090631
vn 0.000274 -0.042261 0.090631
vn -0.000274 0.042261 -0.090631
vn -0.000274 0.042261 -0.090631
vn -0.000274 0.042261 -0.090631
vn -0.000274 0.042261 -0.090631
vn -0.000274 0.042261 -0.090631
vn -0.000274 0.042261 -0.090631
vn -0.000274 0.042261 -0.090631
vn -0.000274 0.042261 -0.090631
vn -0.000274 0.042261 -0.090631
vn -0.000274 0.042261 -0.090631
vn -0.000274 0.042261 -0.090631
vn -0.000274 0.042261 -0.090631
vn -0.000274 0.042261 -0.090631
vn -0.000274 0.042261 -0.090631
vn -0.000274 0.042261 -0.090631
vn -0.000274 0.042261 -0.090631
vn -0.000274 0.042261 -0.090631
vn -0.000274 0.042261 -0.090631
usemtl 191,191,191
f 32/2/2 31/18/18 46/1/1
f 46/1/1 31/18/18 45/19/19
f 46/20/20 45/10/10 30/9/9
f 30/9/9 45/10/10 29/11/11
f 30/9/9 29/11/11 18/8/8
f 18/8/8 29/11/11 17/12/12
f 18/8/8 17/12/12 14/7/7
f 14/7/7 17/12/12 13/13/13
f 14/7/7 13/13/13 6/6/6
f 6/6/6 13/13/13 5/14/14
f 6/6/6 5/14/14 8/5/5
f 8/5/5 5/14/14 7/15/15
f 8/5/5 7/15/15 16/4/4
f 16/4/4 7/15/15 15/16/16
f 16/4/4 15/16/16 20/3/3
f 20/3/3 15/16/16 19/17/17
f 20/3/3 19/17/17 32/2/2
f 32/2/2 19/17/17 31/18/18
f 36/22/22 35/38/38 48/21/21
f 48/21/21 35/38/38 47/39/39
f 48/40/40 47/30/30 38/29/29
f 38/29/29 47/30/30 37/31/31
f 38/29/29 37/31/31 24/28/28
f 24/28/28 37/31/31 23/32/32
f 24/28/28 23/32/32 12/27/27
f 12/27/27 23/32/32 11/33/33
f 12/27/27 11/33/33 4/26/26
f 4/26/26 11/33/33 3/34/34
f 4/26/26 3/34/34 2/25/25
f 2/25/25 3/34/34 1/35/35
f 2/25/25 1/35/35 10/24/24
f 10/24/24 1/35/35 9/36/36
f 10/24/24 9/36/36 22/23/23
f 22/23/23 9/36/36 21/37/37
f 22/23/23 21/37/37 36/22/22
f 36/22/22 21/37/37 35/38/38
f 31/42/42 37/58/58 45/41/41
f 45/41/41 37/58/58 47/50/50
f 45/41/41 47/50/50 35/51/51
f 37/58/58 31/42/42 23/57/57
f 23/57/57 31/42/42 19/43/43
f 23/57/57 19/43/43 15/44/44
f 23/57/57 15/44/44 11/56/56
f 11/56/56 15/44/44 7/45/45
f 11/56/56 7/45/45 3/55/55
f 3/55/55 7/45/45 1/54/54
f 1/54/54 7/45/45 5/46/46
f 1/54/54 5/46/46 9/53/53
f 9/53/53 5/46/46 13/47/47
f 9/53/53 13/47/47 21/52/52
f 21/52/52 13/47/47 17/48/48
f 21/52/52 17/48/48 29/49/49
f 21/52/52 29/49/49 35/51/51
f 35/51/51 29/49/49 45/41/41
f 30/60/60 36/76/76 46/59/59
f 46/59/59 36/76/76 48/68/68
f 46/59/59 48/68/68 38/69/69
f 36/76/76 30/60/60 22/75/75
f 22/75/75 30/60/60 18/61/61
f 22/75/75 18/61/61 14/62/62
f 22/75/75 14/62/62 10/74/74
f 10/74/74 14/62/62 6/63/63
f 10/74/74 6/63/63 2/73/73
f 2/73/73 6/63/63 8/64/64
f 2/73/73 8/64/64 4/72/72
f 4/72/72 8/64/64 12/71/71
f 12/71/71 8/64/64 16/65/65
f 12/71/71 16/65/65 24/70/70
f 24/70/70 16/65/65 20/66/66
f 24/70/70 20/66/66 32/67/67
f 24/70/70 32/67/67 38/69/69
f 38/69/69 32/67/67 46/59/59
f 66/78/78 65/94/94 58/77/77
f 58/77/77 65/94/94 57/95/95
f 58/96/96 57/86/86 52/85/85
f 52/85/85 57/86/86 51/87/87
f 52/85/85 51/87/87 40/84/84
f 40/84/84 51/87/87 39/88/88
f 40/84/84 39/88/88 28/83/83
f 28/83/83 39/88/88 27/89/89
f 28/83/83 27/89/89 44/82/82
f 44/82/82 27/89/89 43/90/90
f 44/82/82 43/90/90 56/81/81
f 56/81/81 43/90/90 55/91/91
f 56/81/81 55/91/91 62/80/80
f 62/80/80 55/91/91 61/92/92
f 62/80/80 61/92/92 68/79/79
f 68/79/79 61/92/92 67/93/93
f 68/79/79 67/93/93 66/78/78
f 66/78/78 67/93/93 65/94/94
f 50/98/98 49/114/114 60/97/97
f 60/97/97 49/114/114 59/115/115
f 60/116/116 59/106/106 70/105/105
f 70/105/105 59/106/106 69/107/107
f 70/105/105 69/107/107 72/104/104
f 72/104/104 69/107/107 71/108/108
f 72/104/104 71/108/108 64/103/103
f 64/103/103 71/108/108 63/109/109
f 64/103/103 63/109/109 54/102/102
f 54/102/102 63/109/109 53/110/110
f 54/102/102 53/110/110 42/101/101
f 42/101/101 53/110/110 41/111/111
f 42/101/101 41/111/111 26/100/100
f 26/100/100 41/111/111 25/112/112
f 26/100/100 25/112/112 34/99/99
f 34/99/99 25/112/112 33/113/113
f 34/99/99 33/113/113 50/98/98
f 50/98/98 33/113/113 49/114/114
f 65/118/118 59/126/126 57/117/117
f 57/117/117 59/126/126 49/127/127
f 57/117/117 49/127/127 51/125/125
f 51/125/125 49/127/127 39/124/124
f 39/124/124 49/127/127 33/128/128
f 39/124/124 33/128/128 27/123/123
f 27/123/123 33/128/128 25/129/129
f 27/123/123 25/129/129 41/130/130
f 59/126/126 65/118/118 69/134/134
f 69/134/134 65/118/118 67/119/119
f 69/134/134 67/119/119 71/133/133
f 71/133/133 67/119/119 63/132/132
f 63/132/132 67/119/119 61/120/120
f 63/132/132 61/120/120 53/131/131
f 53/131/131 61/120/120 55/121/121
f 53/131/131 55/121/121 43/122/122
f 53/131/131 43/122/122 41/130/130
f 41/130/130 43/122/122 27/123/123
f 52/136/136 50/152/152 58/135/135
f 58/135/135 50/152/152 60/144/144
f 58/135/135 60/144/144 66/143/143
f 66/143/143 60/144/144 70/145/145
f 66/143/143 70/145/145 68/142/142
f 68/142/142 70/145/145 72/146/146
f 68/142/142 72/146/146 64/147/147
f 52/136/136 40/137/137 50/152/152
f 50/152/152 40/137/137 34/151/151
f 34/151/151 40/137/137 28/138/138
f 34/151/151 28/138/138 26/150/150
f 26/150/150 28/138/138 42/149/149
f 42/149/149 28/138/138 44/139/139
f 42/149/149 44/139/139 54/148/148
f 54/148/148 44/139/139 56/140/140
f 54/148/148 56/140/140 62/141/141
f 54/148/148 62/141/141 64/147/147
f 64/147/147 62/141/141 68/142/142

# 72 vertices
# 152 texture params
# 152 normals
# 144 facets

# 1 groups
