{"asset":{"version":"2.0","generator":"pv2gltf","copyright":""},"samplers":[{"magFilter":9729,"minFilter":9986,"wrapS":10497,"wrapT":10497}],"materials":[{"name":"material_0","pbrMetallicRoughness":{"baseColorFactor":[0.6399999856948853,0.6399999856948853,0.6399999856948853,1.0],"metallicFactor":0.5,"roughnessFactor":0.5},"doubleSided":true},{"name":"material_1","pbrMetallicRoughness":{"baseColorFactor":[0.800000011920929,0.800000011920929,0.800000011920929,1.0],"metallicFactor":0.5,"roughnessFactor":0.5},"doubleSided":true}],"buffers":[{"uri":"model_2.bin","byteLength":699916},{"uri":"model_3.bin","byteLength":1032},{"uri":"model_4.bin","byteLength":1032}],"bufferViews":[{"buffer":0,"byteOffset":0,"byteLength":413088,"byteStride":12,"target":34962},{"buffer":0,"byteOffset":413088,"byteLength":137696,"byteStride":8,"target":34962},{"buffer":0,"byteOffset":550784,"byteLength":149132,"target":34963},{"buffer":1,"byteOffset":0,"byteLength":720,"byteStride":12,"target":34962},{"buffer":1,"byteOffset":720,"byteLength":240,"byteStride":8,"target":34962},{"buffer":1,"byteOffset":960,"byteLength":72,"target":34963},{"buffer":2,"byteOffset":0,"byteLength":720,"byteStride":12,"target":34962},{"buffer":2,"byteOffset":720,"byteLength":240,"byteStride":8,"target":34962},{"buffer":2,"byteOffset":960,"byteLength":72,"target":34963}],"accessors":[{"bufferView":0,"byteOffset":0,"componentType":5126,"count":17212,"type":"VEC3","min":[-68.36293029785156,-47.651161193847659,-41.736209869384769],"max":[66.94131469726563,40.222164154052737,46.58620071411133]},{"bufferView":0,"byteOffset":206544,"componentType":5126,"count":17212,"type":"VEC3"},{"bufferView":1,"byteOffset":0,"componentType":5126,"count":17212,"type":"VEC2"},{"bufferView":2,"byteOffset":0,"componentType":5123,"count":74565,"type":"SCALAR"},{"bufferView":3,"byteOffset":0,"componentType":5126,"count":30,"type":"VEC3","min":[-17.658761978149415,-26.94594955444336,-32.1972770690918],"max":[17.341238021850587,9.051350593566895,-13.140284538269043]},{"bufferView":3,"byteOffset":360,"componentType":5126,"count":30,"type":"VEC3"},{"bufferView":4,"byteOffset":0,"componentType":5126,"count":30,"type":"VEC2"},{"bufferView":5,"byteOffset":0,"componentType":5123,"count":36,"type":"SCALAR"},{"bufferView":6,"byteOffset":0,"componentType":5126,"count":30,"type":"VEC3","min":[-17.81539535522461,-21.577728271484376,-21.078899383544923],"max":[17.18460464477539,14.386784553527832,-6.668186187744141]},{"bufferView":6,"byteOffset":360,"componentType":5126,"count":30,"type":"VEC3"},{"bufferView":7,"byteOffset":0,"componentType":5126,"count":30,"type":"VEC2"},{"bufferView":8,"byteOffset":0,"componentType":5123,"count":36,"type":"SCALAR"}],"meshes":[{"name":"pelvis_cut_Male_Pelvis_male_pelvis.000","primitives":[{"attributes":{"NORMAL":1,"POSITION":0,"TEXCOORD_0":2},"indices":3,"mode":4,"material":0}]},{"name":"7__20by20mmChip.000","primitives":[{"attributes":{"NORMAL":5,"POSITION":4,"TEXCOORD_0":6},"indices":7,"mode":4,"material":1}]},{"name":"1__20by20mmChip.000","primitives":[{"attributes":{"NORMAL":9,"POSITION":8,"TEXCOORD_0":10},"indices":11,"mode":4,"material":1}]}],"nodes":[{"name":"pelvis_cut_Male_Pelvis_male_pelvis.000","mesh":0},{"name":"7__20by20mmChip.000","mesh":1},{"name":"1__20by20mmChip.000","mesh":2},{"name":"model","children":[0,1,2]}],"scenes":[{"nodes":[3]}],"scene":0}